<?xml version="1.0" standalone="no"?>
<!DOCTYPE svg PUBLIC "-//W3C//DTD SVG 20010904//EN"
 "http://www.w3.org/TR/2001/REC-SVG-20010904/DTD/svg10.dtd">
<svg version="1.0" xmlns="http://www.w3.org/2000/svg"
 width="666.000000pt" height="666.000000pt" viewBox="0 0 666.000000 666.000000"
 preserveAspectRatio="xMidYMid meet">
<metadata>
Created by potrace 1.14, written by Peter Selinger 2001-2017
</metadata>
<g transform="translate(0.000000,666.000000) scale(0.100000,-0.100000)"
fill="#000000" stroke="none">
<path d="M0 3810 c0 -1774 4 -2850 9 -2850 6 0 13 5 16 10 3 6 23 10 44 10 87
0 128 -117 66 -184 -18 -20 -34 -26 -64 -26 -22 0 -43 5 -46 10 -21 35 -25
-20 -25 -385 l0 -395 3330 0 3330 0 0 388 0 388 -40 -4 c-56 -6 -70 9 -70 74
0 50 -1 53 -27 56 l-28 4 28 12 c19 8 27 19 27 37 0 34 18 32 22 -2 3 -25 7
-28 46 -31 l42 -3 0 2870 0 2871 -3330 0 -3330 0 0 -2850z m5912 -1038 c186
-67 296 -199 332 -399 l6 -33 -153 0 -153 0 -13 47 c-38 126 -205 190 -337
127 -56 -27 -110 -88 -136 -152 -31 -78 -33 -288 -4 -372 26 -74 103 -152 168
-168 58 -15 121 -15 172 -1 51 14 119 79 136 129 l13 40 154 0 153 0 -6 -27
c-24 -109 -62 -183 -136 -259 -64 -67 -139 -112 -233 -140 -73 -21 -244 -24
-325 -5 -210 50 -369 220 -414 443 -30 146 -15 340 37 463 56 135 177 252 312
299 95 34 102 35 245 31 94 -2 139 -8 182 -23z m-4893 -347 c81 -198 152 -369
158 -380 l12 -20 7 20 c4 11 74 182 155 380 l148 360 185 3 186 2 0 -615 0
-615 -145 0 -145 0 -2 377 -3 377 -146 -370 -146 -369 -97 0 -98 0 -143 363
c-79 200 -146 366 -149 369 -3 4 -6 -163 -6 -370 l0 -377 -145 0 -145 0 0 615
0 615 186 -2 185 -3 148 -360z m3461 337 c129 -43 219 -130 255 -247 24 -80
20 -227 -9 -297 -30 -74 -77 -132 -132 -164 -24 -14 -44 -28 -44 -32 0 -6 199
-375 232 -429 l20 -33 -169 0 -168 1 -94 180 c-139 263 -118 239 -201 239
l-70 0 0 -210 0 -210 -150 0 -150 0 0 616 0 616 308 -4 c283 -4 312 -6 372
-26z m-1458 -79 c14 -43 51 -150 83 -238 31 -88 60 -171 65 -185 5 -14 34 -97
65 -185 109 -309 175 -498 175 -507 0 -4 -73 -8 -163 -8 l-163 0 -46 158
c-133 454 -199 676 -202 680 -3 2 -14 -29 -26 -70 -12 -40 -39 -131 -60 -203
-21 -71 -66 -224 -100 -340 -34 -115 -65 -213 -69 -218 -4 -4 -80 -6 -168 -5
l-160 3 49 140 c27 77 62 176 78 220 37 105 142 402 226 643 l67 192 161 0
162 0 26 -77z m3148 -1663 c11 0 20 9 23 23 4 20 4 19 6 -4 1 -17 8 -28 21
-32 10 -3 22 -17 26 -33 6 -22 2 -32 -18 -49 l-25 -22 28 -10 c25 -10 29 -17
29 -48 0 -29 -5 -39 -30 -53 -17 -10 -30 -26 -31 -37 0 -18 -1 -18 -9 3 -5 12
-16 22 -25 22 -9 0 -15 -9 -16 -22 l0 -23 -9 23 c-7 16 -18 22 -42 22 -27 1
-30 2 -15 11 14 8 17 25 17 109 0 82 -3 100 -15 100 -8 0 -15 5 -15 10 0 6 16
10 35 10 29 0 35 4 36 23 l2 22 4 -22 c3 -14 12 -23 23 -23z m-496 -12 c12
-17 13 -25 3 -42 -11 -20 -12 -20 -15 7 -6 50 -70 49 -97 -3 -17 -33 -12 -57
16 -65 32 -10 22 -27 -11 -20 -81 18 -81 -88 0 -130 37 -19 113 -19 150 0 75
39 62 135 -19 135 -29 0 -61 -26 -61 -50 0 -29 13 -32 32 -8 15 19 20 20 27 9
16 -25 1 -42 -33 -39 -29 3 -31 6 -31 43 0 36 4 42 35 57 19 10 55 18 80 18
61 0 92 22 88 63 -2 24 -8 33 -25 35 -19 3 -23 -1 -23 -22 0 -29 -27 -36 -36
-11 -15 39 52 61 88 28 40 -36 10 -107 -52 -120 -28 -5 -29 -7 -15 -26 20 -29
19 -56 -5 -94 -27 -44 -72 -65 -140 -65 -91 0 -150 48 -150 122 0 32 30 70 54
70 11 0 13 9 9 35 -11 69 93 128 131 73z m-4954 -18 c0 -11 -7 -20 -15 -20 -8
0 -15 9 -15 20 0 11 7 20 15 20 8 0 15 -9 15 -20z m420 0 c0 -11 -7 -20 -15
-20 -8 0 -15 9 -15 20 0 11 7 20 15 20 8 0 15 -9 15 -20z m2320 0 c0 -21 -24
-28 -35 -10 -8 14 3 30 21 30 8 0 14 -9 14 -20z m420 0 c0 -21 -24 -28 -35
-10 -8 14 3 30 21 30 8 0 14 -9 14 -20z m840 0 c0 -11 -7 -20 -15 -20 -8 0
-15 9 -15 20 0 11 7 20 15 20 8 0 15 -9 15 -20z m1683 6 c7 -16 -1 -26 -20
-26 -7 0 -13 9 -13 20 0 23 25 27 33 6z m-3515 -13 c2 -9 -9 -13 -37 -13 -23
0 -41 -2 -41 -4 0 -2 -3 -11 -6 -20 -4 -11 3 -15 33 -18 47 -4 46 -22 -2 -26
-35 -3 -35 -3 -35 -53 0 -45 2 -49 24 -49 33 0 57 -10 50 -21 -7 -12 -131 -11
-139 1 -3 5 6 12 20 16 22 6 25 11 25 54 0 41 -3 49 -20 52 -12 2 -21 8 -21
13 0 6 9 11 21 13 12 2 20 11 20 22 0 31 29 51 68 48 19 -2 37 -9 40 -15z
m1622 -88 l0 -105 30 0 c17 0 30 -4 30 -10 0 -6 -32 -10 -75 -10 -43 0 -75 4
-75 10 0 6 14 10 30 10 l30 0 0 89 c0 84 -1 90 -22 93 -41 6 -32 28 11 28 l41
0 0 -105z m-4040 55 c0 -28 2 -30 40 -30 22 0 40 -4 40 -10 0 -5 -18 -10 -40
-10 l-40 0 0 -44 c0 -57 17 -72 65 -56 20 7 39 9 43 5 12 -12 -31 -35 -67 -35
-51 0 -71 23 -71 82 0 41 -3 48 -20 48 -11 0 -20 5 -20 10 0 6 9 10 20 10 16
0 20 7 20 30 0 20 5 30 15 30 10 0 15 -10 15 -30z m1052 3 c3 -25 7 -28 46
-31 23 -2 42 -7 42 -12 0 -5 -19 -10 -42 -12 l-43 -3 1 -43 c1 -58 14 -70 60
-53 41 15 58 6 30 -15 -24 -17 -88 -18 -104 -2 -7 7 -12 36 -12 64 0 50 -1 53
-27 56 l-28 4 28 12 c19 8 27 19 27 37 0 34 18 32 22 -2z m726 -5 c4 -33 -17
-38 -36 -8 -7 11 -22 20 -35 20 -48 0 -67 -56 -22 -65 14 -3 36 -7 50 -10 36
-8 58 -46 46 -78 -11 -29 -37 -39 -104 -41 -42 -2 -48 1 -53 21 -4 13 -4 30 0
38 6 16 26 21 26 6 0 -35 76 -55 100 -26 20 24 6 39 -56 60 -54 18 -59 23 -62
52 -4 44 27 65 93 61 46 -3 50 -5 53 -30z m940 20 c5 -7 16 -32 23 -55 6 -24
15 -43 19 -43 3 0 13 21 21 47 16 51 37 70 65 58 13 -5 15 -9 7 -12 -20 -7
-18 -162 2 -169 25 -10 6 -24 -31 -24 -37 0 -42 6 -20 24 11 9 13 25 7 71 l-7
60 -15 -45 c-9 -25 -22 -45 -30 -45 -7 0 -21 20 -30 45 l-17 45 -7 -59 c-6
-49 -5 -61 9 -71 24 -18 20 -25 -19 -25 -34 0 -46 12 -25 25 14 8 13 165 -1
165 -5 0 -7 5 -4 10 9 14 41 12 53 -2z m1914 -15 c3 -25 7 -28 46 -31 23 -2
42 -7 42 -12 0 -5 -19 -10 -42 -12 l-43 -3 1 -43 c1 -58 14 -70 60 -53 41 15
58 6 30 -15 -24 -17 -88 -18 -104 -2 -7 7 -12 36 -12 64 0 50 -1 53 -27 56
l-28 4 28 12 c19 8 27 19 27 37 0 34 18 32 22 -2z m-4195 -24 c8 -8 17 -8 32
0 15 9 27 9 41 1 17 -9 20 -21 20 -70 0 -32 5 -62 10 -65 17 -10 11 -25 -10
-25 -18 0 -20 7 -20 65 0 51 -4 67 -16 72 -9 3 -20 0 -25 -8 -12 -19 -11 -109
1 -109 6 0 10 -5 10 -11 0 -6 -10 -9 -22 -7 -21 3 -24 10 -28 68 -4 49 -9 65
-20 65 -11 0 -16 -14 -18 -57 -2 -36 1 -58 8 -58 5 0 10 -4 10 -10 0 -5 -16
-10 -35 -10 -34 0 -46 12 -25 25 6 3 10 31 10 61 0 30 -4 54 -10 54 -5 0 -10
4 -10 9 0 6 17 12 38 14 20 2 39 4 43 5 3 1 10 -3 16 -9z m491 -8 c2 -7 1 -19
-2 -27 -5 -14 -8 -14 -28 0 -29 20 -74 21 -82 1 -6 -17 1 -21 57 -29 65 -9 85
-40 50 -78 -12 -13 -31 -18 -75 -18 l-58 0 0 31 0 30 26 -20 c41 -32 105 -23
91 13 -4 11 -19 16 -45 16 -21 0 -46 6 -56 13 -24 18 -17 58 13 73 28 15 104
11 109 -5z m1273 9 c30 -16 23 -33 -10 -27 -46 9 -83 -25 -79 -72 3 -33 6 -36
36 -39 60 -6 32 -22 -38 -22 -40 0 -70 4 -70 10 0 6 9 10 20 10 18 0 20 7 20
60 0 47 -3 60 -15 60 -8 0 -15 5 -15 10 0 6 14 10 30 10 21 0 30 -5 30 -17 0
-14 2 -15 18 -1 14 13 33 23 50 27 2 1 12 -4 23 -9z m1037 -18 c6 -9 12 -40
12 -69 0 -29 5 -53 10 -53 6 0 10 -4 10 -10 0 -5 -16 -10 -35 -10 -19 0 -35 5
-35 10 0 6 5 10 10 10 7 0 10 22 8 58 -3 49 -6 57 -24 60 -12 2 -29 -4 -38
-13 -18 -18 -22 -90 -6 -100 21 -13 9 -25 -25 -25 -19 0 -35 5 -35 10 0 6 5
10 10 10 6 0 10 27 10 60 0 33 -4 60 -10 60 -5 0 -10 5 -10 11 0 7 12 10 33 7
17 -3 41 -2 52 2 24 9 46 3 63 -18z m359 17 c8 -8 17 -8 32 0 15 9 27 9 41 1
17 -9 20 -21 20 -70 0 -32 5 -62 10 -65 17 -10 11 -25 -10 -25 -18 0 -20 7
-20 65 0 51 -4 67 -16 72 -9 3 -20 0 -25 -8 -12 -19 -11 -109 1 -109 6 0 10
-5 10 -11 0 -6 -10 -9 -22 -7 -21 3 -24 10 -28 68 -4 49 -9 65 -20 65 -11 0
-16 -14 -18 -57 -2 -36 1 -58 8 -58 5 0 10 -4 10 -10 0 -5 -16 -10 -35 -10
-34 0 -46 12 -25 25 6 3 10 31 10 61 0 30 -4 54 -10 54 -5 0 -10 4 -10 9 0 6
17 12 38 14 20 2 39 4 43 5 3 1 10 -3 16 -9z m271 -16 c6 -9 12 -40 12 -69 0
-42 4 -53 18 -57 16 -4 16 -5 -2 -12 -11 -5 -26 -4 -36 3 -12 7 -21 7 -27 1
-15 -15 -84 -6 -96 12 -5 9 -7 28 -3 42 5 20 16 29 45 37 21 5 47 7 56 4 13
-5 16 -2 13 12 -3 16 -12 19 -51 17 -50 -1 -62 11 -24 27 30 13 79 4 95 -17z
m620 17 c17 0 22 -6 22 -25 0 -28 -12 -32 -30 -10 -7 8 -28 15 -46 15 -27 0
-34 -4 -34 -19 0 -14 10 -19 45 -23 53 -6 75 -22 75 -54 0 -31 -27 -44 -94
-44 -56 0 -56 0 -56 30 0 36 3 37 31 9 27 -27 84 -23 84 6 0 16 -9 21 -48 26
-51 5 -69 21 -65 54 4 24 45 47 73 40 11 -2 30 -5 43 -5z m-4610 -22 c29 -28
30 -83 0 -115 -23 -25 -57 -29 -89 -13 -17 10 -19 7 -19 -19 0 -23 5 -30 22
-33 12 -2 23 -9 26 -15 2 -9 -11 -13 -47 -13 -47 0 -65 10 -41 25 6 3 10 46
10 96 0 53 -4 89 -10 89 -5 0 -10 4 -10 8 0 5 30 9 68 10 55 0 71 -3 90 -20z
m372 -48 l0 -70 35 0 c19 0 35 -4 35 -10 0 -6 -33 -10 -80 -10 -47 0 -80 4
-80 10 0 6 14 10 30 10 l30 0 0 60 c0 53 -2 60 -20 60 -11 0 -20 5 -20 10 0 6
16 10 35 10 l35 0 0 -70z m420 0 l0 -70 35 0 c19 0 35 -4 35 -10 0 -6 -33 -10
-80 -10 -47 0 -80 4 -80 10 0 6 14 10 30 10 l30 0 0 60 c0 53 -2 60 -20 60
-11 0 -20 5 -20 10 0 6 16 10 35 10 l35 0 0 -70z m1202 9 c4 -58 16 -78 45
-79 25 0 43 32 43 76 0 37 -3 44 -20 44 -11 0 -20 5 -20 11 0 6 14 9 33 7 l32
-3 3 -67 c2 -38 7 -68 12 -68 6 0 10 -4 10 -10 0 -5 -11 -10 -25 -10 -14 0
-25 5 -25 12 0 9 -3 9 -12 0 -7 -7 -26 -12 -43 -12 -44 0 -55 16 -55 82 0 45
-3 58 -15 58 -8 0 -15 5 -15 10 0 6 11 10 24 10 22 0 24 -5 28 -61z m1118 -9
l0 -70 36 0 c21 0 33 -4 29 -10 -3 -5 -39 -10 -80 -10 -41 0 -77 5 -80 10 -4
6 8 10 29 10 l36 0 0 60 c0 57 -1 60 -25 60 -14 0 -25 5 -25 10 0 6 18 10 40
10 l40 0 0 -70z m420 0 l0 -70 36 0 c21 0 33 -4 29 -10 -3 -5 -39 -10 -80 -10
-41 0 -77 5 -80 10 -4 6 8 10 29 10 l36 0 0 60 c0 57 -1 60 -25 60 -14 0 -25
5 -25 10 0 6 18 10 40 10 l40 0 0 -70z m840 0 l0 -70 35 0 c19 0 35 -4 35 -10
0 -6 -33 -10 -80 -10 -47 0 -80 4 -80 10 0 6 14 10 30 10 l30 0 0 60 c0 53 -2
60 -20 60 -11 0 -20 5 -20 10 0 6 16 10 35 10 l35 0 0 -70z m1682 3 l3 -68 33
-3 c64 -6 30 -22 -48 -22 -47 0 -80 4 -80 10 0 6 14 10 30 10 l30 0 0 60 c0
53 -2 60 -20 60 -11 0 -20 5 -20 10 0 6 16 10 35 10 l34 0 3 -67z m-4612 -40
c-1 -5 -13 -31 -28 -60 -18 -35 -31 -50 -39 -45 -12 7 -8 40 12 100 5 13 55
17 55 5z"/>
<path d="M4100 2380 l0 -162 118 4 c78 2 127 8 147 18 98 50 102 213 6 272
-31 20 -53 23 -153 27 l-118 3 0 -162z"/>
<path d="M6130 955 c0 -43 1 -45 28 -45 33 0 52 16 52 45 0 29 -19 45 -52 45
-27 0 -28 -2 -28 -45z"/>
<path d="M6137 893 c-4 -3 -7 -28 -7 -55 0 -52 11 -59 63 -39 40 16 43 75 4
86 -12 4 -29 9 -38 11 -8 2 -18 1 -22 -3z"/>
<path d="M4237 843 c-14 -14 -6 -42 13 -48 25 -8 70 19 70 40 0 11 -11 15 -38
15 -21 0 -42 -3 -45 -7z"/>
<path d="M252 888 c-15 -15 -15 -61 0 -76 7 -7 24 -12 38 -12 33 0 50 17 50
50 0 14 -5 31 -12 38 -15 15 -61 15 -76 0z"/>
<path d="M30 940 c-28 -28 -28 -102 0 -130 45 -45 100 -9 100 65 0 50 -25 85
-60 85 -11 0 -29 -9 -40 -20z"/>
<path d="M6574 885 c-10 -24 6 -85 22 -92 8 -3 26 -1 40 5 20 10 24 19 24 57
l0 45 -40 0 c-27 0 -43 -5 -46 -15z"/>
</g>
</svg>
